<svg width="100" height="86" viewBox="0 0 100 86" fill="none" xmlns="http://www.w3.org/2000/svg">
<path d="M81.8182 21.5L63.6364 43H77.2727C77.2727 60.7912 65.0455 75.25 50 75.25C45.4091 75.25 41.0455 73.9062 37.2727 71.4875L30.6364 79.335C36.2273 83.5275 42.8636 86 50 86C70.0909 86 86.3636 66.7575 86.3636 43H100L81.8182 21.5ZM22.7273 43C22.7273 25.2088 34.9545 10.75 50 10.75C54.5909 10.75 58.9545 12.0937 62.7273 14.5125L69.3636 6.665C63.7727 2.4725 57.1364 0 50 0C29.9091 0 13.6364 19.2425 13.6364 43H0L18.1818 64.5L36.3636 43H22.7273Z" fill="white"/>
</svg>
